<?xml version="1.0" encoding="UTF-8" standalone="no" ?>
<!DOCTYPE svg PUBLIC "-//W3C//DTD SVG 1.1//EN" "http://www.w3.org/Graphics/SVG/1.1/DTD/svg11.dtd">
<svg xmlns="http://www.w3.org/2000/svg" xmlns:xlink="http://www.w3.org/1999/xlink" version="1.1" width="640" height="640" viewBox="0 0 640 640" xml:space="preserve">
<desc>Created with Fabric.js 4.6.0</desc>
<defs>
</defs>
<g transform="matrix(1 0 0 1 308.8 224.74)" id="W5xn3TQs-f8ql-BZMZqi2"  >
<path style="stroke: rgb(1,53,154); stroke-width: 0; stroke-dasharray: none; stroke-linecap: butt; stroke-dashoffset: 0; stroke-linejoin: miter; stroke-miterlimit: 4; fill: rgb(164,117,81); fill-rule: nonzero; opacity: 1;" vector-effect="non-scaling-stroke"  transform=" translate(-114.39, -135.6)" d="M 228.78862 170.42411 C 228.78862 226.05033000000003 183.64270000000002 271.19626 128.01647000000003 271.19626 C 72.39025000000002 271.19626 27.24432000000003 226.05034 27.24432000000003 170.42410999999998 C 27.24432000000003 164.64992999999998 27.73077000000003 158.98868 28.66490000000003 153.47913 C 11.04914000000003 137.32389 3.197442310920451e-14 114.12115 3.197442310920451e-14 88.35343 C 3.197442310920451e-14 39.58234 39.58234000000003 0 88.35343000000003 0 C 135.01049000000003 0 173.25812000000002 36.22524 176.48622000000003 82.06561 C 207.65304000000003 99.20909 228.78861000000003 132.36337 228.78861000000003 170.42412000000002 z" stroke-linecap="round" />
</g>
<g transform="matrix(1 0 0 -1.32 320 424.28)" id="u9_Vlmi34zeSVl4b9BO_X"  >
<path style="stroke: none; stroke-width: 1; stroke-dasharray: none; stroke-linecap: butt; stroke-dashoffset: 0; stroke-linejoin: miter; stroke-miterlimit: 4; fill: rgb(208,180,159); fill-rule: nonzero; opacity: 1;" vector-effect="non-scaling-stroke"  transform=" translate(-121.6, -121.6)" d="M 182.40728 121.60485 L 243.20970999999997 243.2097 L 121.60485999999997 243.2097 L 0.000009999999974752427 243.2097 L 60.802439999999976 121.60485 L 121.60486999999998 0 z" stroke-linecap="round" />
</g>
<g transform="matrix(0.29 0.21 -0.84 1.16 234.58 138.83)" id="u1gksNaypksKaTQKeIoYj"  >
<path style="stroke: rgb(76,182,186); stroke-width: 0; stroke-dasharray: none; stroke-linecap: butt; stroke-dashoffset: 0; stroke-linejoin: miter; stroke-miterlimit: 4; fill: rgb(208,180,159); fill-rule: nonzero; opacity: 1;" vector-effect="non-scaling-stroke"  transform=" translate(0, 0)" d="M 0 -37.78955 C 20.85983 -37.78955 37.78955 -20.85983 37.78955 0 C 37.78955 20.85983 20.85983 37.78955 0 37.78955 C -20.85983 37.78955 -37.78955 20.85983 -37.78955 0 C -37.78955 -20.85983 -20.85983 -37.78955 0 -37.78955 z" stroke-linecap="round" />
</g>
<g transform="matrix(0.18 0.24 -0.97 0.73 303.3 210.04)" id="0fSJQpVd0y1nmh9H42T_M"  >
<path style="stroke: rgb(76,182,186); stroke-width: 0; stroke-dasharray: none; stroke-linecap: butt; stroke-dashoffset: 0; stroke-linejoin: miter; stroke-miterlimit: 4; fill: rgb(208,180,159); fill-rule: nonzero; opacity: 1;" vector-effect="non-scaling-stroke"  transform=" translate(0, 0)" d="M 0 -37.78955 C 20.85983 -37.78955 37.78955 -20.85983 37.78955 0 C 37.78955 20.85983 20.85983 37.78955 0 37.78955 C -20.85983 37.78955 -37.78955 20.85983 -37.78955 0 C -37.78955 -20.85983 -20.85983 -37.78955 0 -37.78955 z" stroke-linecap="round" />
</g>
<g transform="matrix(0.32 0.12 -0.79 2.17 362.36 407.52)" id="dTcpiLvhzMBaDENyAFdlQ"  >
<path style="stroke: rgb(149,132,119); stroke-width: 0; stroke-dasharray: none; stroke-linecap: butt; stroke-dashoffset: 0; stroke-linejoin: miter; stroke-miterlimit: 4; fill: rgb(166,142,124); fill-rule: nonzero; opacity: 1;" vector-effect="non-scaling-stroke"  transform=" translate(0, 0)" d="M 0 -59.59122 C 32.89435 -59.59122 59.59122 -32.89436 59.59122 0 C 59.59122 32.89435 32.89436 59.59122 0 59.59122 C -32.89435 59.59122 -59.59122 32.89436 -59.59122 0 C -59.59122 -32.89435 -32.89436 -59.59122 0 -59.59122 z" stroke-linecap="round" />
</g>
</svg>